<svg width="125" height="133" viewBox="0 0 125 133" fill="#000000" xmlns="http://www.w3.org/2000/svg">
    <path
            d="M123.385 84.0193C120.191 97.793 112.435 110.082 101.378 118.894C90.3211 127.705 76.6097 132.522 62.4725 132.562C57.6758 132.558 52.8963 132.009 48.2241 130.924C35.4992 127.973 24.0135 121.122 15.373 111.327C6.73113 101.533 1.36507 89.2824 0.0237716 76.2901C-0.0894878 75.2798 0.204986 74.2661 0.842639 73.4744C1.48029 72.6828 2.40903 72.1799 3.42045 72.0768C4.43188 71.9737 5.44217 72.2795 6.22706 72.9263C7.01082 73.5741 7.50463 74.5074 7.59527 75.5199C8.87739 87.9651 14.3603 99.6015 23.1402 108.513C31.9202 117.425 43.4752 123.081 55.8986 124.548C68.3234 126.014 80.877 123.205 91.4897 116.583C103.874 108.855 112.68 96.5255 115.972 82.3053C119.264 68.0854 116.772 53.1394 109.045 40.7558C101.317 28.3718 88.9865 19.5658 74.7675 16.2743C60.5476 12.982 45.6016 15.4736 33.218 23.2015L24.8898 28.3979L42.7251 30.2123H42.7239C43.7387 30.3018 44.6754 30.7934 45.3244 31.5783C45.9734 32.3631 46.2803 33.3746 46.1784 34.3883C46.0753 35.4008 45.5713 36.3307 44.7774 36.9683C43.9834 37.6071 42.9675 37.9005 41.956 37.7838L13.0552 34.8434C12.9838 34.8367 12.9181 34.8117 12.8479 34.8015V34.8004C12.7075 34.78 12.5682 34.7517 12.4311 34.7155C12.3473 34.6928 12.2646 34.6679 12.1831 34.6396C12.1627 34.6328 12.1412 34.6362 12.1208 34.6282C12.0834 34.6147 12.0528 34.592 12.0166 34.5773C11.9237 34.5399 11.8342 34.498 11.7448 34.4527C11.67 34.4153 11.5964 34.3779 11.5239 34.336C11.4627 34.3009 11.4038 34.2647 11.3461 34.2262C11.2702 34.1752 11.1954 34.1186 11.1218 34.0619C11.0561 34.011 10.9927 33.9623 10.9304 33.9079C10.8692 33.8535 10.816 33.8048 10.7605 33.7493C10.7016 33.6904 10.6461 33.627 10.5906 33.5636C10.5351 33.5002 10.4819 33.4401 10.4309 33.3733C10.38 33.3076 10.3279 33.2329 10.2792 33.1604C10.2576 33.1287 10.2305 33.1038 10.2101 33.0709C10.1897 33.0381 10.1772 32.9984 10.1568 32.9633C10.1161 32.8942 10.0776 32.824 10.0413 32.7526C10.0005 32.6711 9.96543 32.5873 9.93032 32.5035C9.8986 32.4276 9.86915 32.354 9.84311 32.2781C9.81932 32.209 9.79894 32.1399 9.77855 32.0686C9.75363 31.9802 9.73551 31.893 9.71852 31.8024C9.70153 31.7174 9.68454 31.6325 9.67321 31.5464C9.66415 31.4796 9.65736 31.4139 9.65283 31.346C9.64603 31.2542 9.6449 31.1625 9.6449 31.0707C9.6449 30.9778 9.64716 30.8838 9.65283 30.7898C9.65509 30.7502 9.64943 30.7117 9.65283 30.6709C9.65509 30.6426 9.66642 30.6177 9.66982 30.5905C9.68001 30.5078 9.69473 30.4251 9.71286 30.3425C9.73211 30.2405 9.75589 30.1443 9.78308 30.0457C9.80233 29.9766 9.81932 29.9075 9.84311 29.8396C9.85443 29.8056 9.8567 29.7716 9.86802 29.7377L19.9278 2.48836C20.6549 0.516479 22.8443 -0.491437 24.816 0.236738C26.7879 0.963869 27.7958 3.15332 27.0676 5.12497L20.8598 21.9419L29.188 16.7455L29.1891 16.7444C43.2844 7.94851 60.2976 5.11253 76.4825 8.86039C92.6697 12.6083 106.704 22.6318 115.501 36.727C124.297 50.8211 127.133 67.8355 123.386 84.0204L123.385 84.0193ZM37.7521 99.5893L64.7874 72.5539C65.5009 71.8404 65.9019 70.872 65.9019 69.8629V42.1978C65.9019 40.0968 64.1984 38.3922 62.0963 38.3922C59.9942 38.3922 58.2908 40.0968 58.2908 42.1978V68.2873L32.37 94.2072C31.6395 94.9173 31.2238 95.8914 31.217 96.9096C31.2091 97.9289 31.6112 98.9075 32.3315 99.6278C33.0518 100.348 34.0304 100.75 35.0498 100.742C36.068 100.736 37.0419 100.32 37.7521 99.5893Z"
            fill="black"
    />
</svg>
